<svg xmlns="http://www.w3.org/2000/svg" viewBox="0 0 1000 1000"><defs><style>.cls-1{fill:#40370b;}</style></defs><g id="Logo"><path class="cls-1" d="M799.63,616.14c11.88,28.73,36.56,88.34,48.57,117.31q-5,3.39-10.1,6.45c-3.42,2-6.86,4-10.39,5.77h0A203.34,203.34,0,0,1,795.11,759h0c-38.4,11.92-79.86,12.52-119.19,3.53h0a195.34,195.34,0,0,1-76.92-32c-13.77-9.67-47.81-33.57-62-76.27,99,102.93,210.68,36.59,210.68,36.59-7.24-17.46-14-33.91-18.81-45.43l-18.65-45.06L801.93,500,710.11,399.61l18.65-45.06c4.77-11.52,11.57-28,18.81-45.43a159.79,159.79,0,0,0-65.76,6.06c-58.39,18.42-89.42,67.53-109,99.47C562.9,430.87,550.18,466,524.74,536.2c0,0-47.13,130.1-93.87,171.87-3.08,2.75-6.29,5.41-6.29,5.41-4.25,3.51-8.66,6.88-13.15,10.11-1.13.8-2.28,1.59-3.42,2.38-2.29,1.56-4.6,3.1-6.94,4.59a242,242,0,0,1-29.35,15.87v0c-2.56,1.15-5.1,2.26-7.67,3.33s-5.19,2.1-7.8,3.1-5.25,1.91-7.9,2.79c-.87.31-1.78.61-2.66.89l-2.56.82c-6.25,2-12.6,3.68-19,5.14h0c-39.33,9-80.79,8.39-119.19-3.53h0a203.34,203.34,0,0,1-32.59-13.33h0c-3.53-1.82-7-3.74-10.39-5.77s-6.79-4.19-10.1-6.45c12-29,36.69-88.58,48.57-117.31L94.16,500,200.37,383.86c-11.88-28.73-36.56-88.34-48.57-117.31q5-3.39,10.1-6.45c3.42-2,6.86-4,10.39-5.77h0A203.34,203.34,0,0,1,204.89,241h0c38.4-11.92,79.86-12.52,119.19-3.53h0a195.34,195.34,0,0,1,76.92,32c13.77,9.67,47.81,33.57,62,76.27-98.95-102.93-210.68-36.59-210.68-36.59,7.24,17.46,14,33.91,18.81,45.43l18.65,45.06L198.07,500l91.82,100.39-18.65,45.06c-4.77,11.52-11.57,28-18.81,45.43,16.48,2.16,40.22,2.85,65.76-6.06,3.29-1.14,7.18-2.58,11.63-4.59,47.83-21.58,82.63-74.54,82.63-74.54,37.56-57.36,57.68-121,71.49-164.63,10.16-32.13,23.71-80.65,65-128.45,2.27-2.63,4.19-4.76,5.49-6.18h0c4.68-5.06,9.61-9.89,14.74-14.49,2.08-1.84,4.17-3.64,6.29-5.41,4.25-3.51,8.66-6.88,13.15-10.11,1.13-.8,2.28-1.59,3.42-2.38,2.29-1.56,4.6-3.1,6.94-4.59a242,242,0,0,1,29.35-15.87v0c2.56-1.15,5.1-2.26,7.67-3.33s5.19-2.1,7.8-3.1,5.25-1.91,7.9-2.79c.87-.31,1.78-.61,2.66-.89l2.56-.82c6.25-2,12.6-3.68,19-5.14h0c39.33-9,80.79-8.39,119.19,3.53h0a203.34,203.34,0,0,1,32.59,13.33h0c3.53,1.82,7,3.74,10.39,5.77s6.79,4.19,10.1,6.45c-12,29-36.69,88.58-48.57,117.31L905.84,500Z"/></g></svg>